<svg xmlns="http://www.w3.org/2000/svg" viewBox="0 0 100 100" width="100" height="100">
  <defs>
    <linearGradient id="auraGradient" x1="0%" y1="0%" x2="100%" y2="100%">
      <stop offset="0%" style="stop-color: #10b981; stop-opacity: 1" />
      <stop offset="100%" style="stop-color: #059669; stop-opacity: 1" />
    </linearGradient>
  </defs>
  <circle cx="50" cy="50" r="48" fill="url(#auraGradient)" />
  <path 
    d="M50 25C36.2 25 25 36.2 25 50C25 63.8 36.2 75 50 75C63.8 75 75 63.8 75 50C75 45.4 72.2 40.8 68.5 36.2C65.7 31.6 61.1 25 50 25ZM50 67.5C40.3 67.5 32.5 59.7 32.5 50C32.5 40.3 40.3 32.5 50 32.5C59.7 32.5 67.5 40.3 67.5 50C67.5 59.7 59.7 67.5 50 67.5Z" 
    fill="white" 
    opacity="0.9"
  />
  <circle cx="50" cy="50" r="3.5" fill="white" />
</svg>